<?xml version="1.0" encoding="UTF-8" standalone="no"?>

<svg
   xmlns:dc="http://purl.org/dc/elements/1.1/"
   xmlns:cc="http://creativecommons.org/ns#"
   xmlns:rdf="http://www.w3.org/1999/02/22-rdf-syntax-ns#"
   xmlns:svg="http://www.w3.org/2000/svg"
   xmlns="http://www.w3.org/2000/svg"
   xmlns:xlink="http://www.w3.org/1999/xlink"
   xmlns:sodipodi="http://sodipodi.sourceforge.net/DTD/sodipodi-0.dtd"
   xmlns:inkscape="http://www.inkscape.org/namespaces/inkscape"
   version="1.1"
   id="Layer_1"
   x="0px"
   y="0px"
   viewBox="0 0 700 600"
   enable-background="new 0 0 700 600"
   xml:space="preserve"
   sodipodi:docname="КАРТА ИСПАНИИ.svg"
   inkscape:version="0.92.2 (5c3e80d, 2017-08-06)"><metadata
     id="metadata266"><rdf:RDF><cc:Work
         rdf:about=""><dc:format>image/svg+xml</dc:format><dc:type
           rdf:resource="http://purl.org/dc/dcmitype/StillImage" /><dc:title></dc:title></cc:Work></rdf:RDF></metadata><defs
     id="defs264" />

    <g id="barselona" style="fill: none;"  data-count-objects="1138" data-count-flat="19" data-count-villa="113">
			 <path
     stroke-miterlimit="10"
     d="m 524.76119,91.177612 v 14.699998 c 0,0 2,5 1.3,10 -0.7,5 -7,16 -7,16 l -13.6,18.6 c 0,0 0,3.3 1.7,6.3 1.7,3 5.3,4.3 5.3,6.7 0,2.4 -1.7,7.7 -1.7,11.7 0,4 1.3,6.7 -1,12.7 -2.3,6 -5.3,10.3 -4.3,13.7 1,3.4 3.7,9.3 2.7,13.3 -1,4 -2,8.7 0,9.3 2,0.7 3,3.7 5.7,6.7 2.7,3 1.2,3.9 3.7,5 2.5,1.1 2.5,1.1 2.5,1.1 l 2.6,-3.1 3.8,-2.7 1.5,-0.3 1.9,-0.3 2.4,-2.4 0.6,-3.3 -1.2,-3.4 -2.4,0.5 -1.2,0.8 0.7,-3.5 1.4,-3 2.6,-1.4 1.4,-0.4 2.4,-2.2 2.4,-3.4 3.2,-6 6.7,-4.7 4.9,-1.6 3.9,-1.3 6.6,-3.1 5.3,-2.9 8.7,-5 h 10 l 4.7,-4 h 10.8 v -12 h 6.7 l 7.3,-9.3 h 6.7 l 11.3,-8 3.2,-4.8 2.6,-4.7 2.2,-4.4 8,-5.3 v -6.3 -4.4 l -2.7,-3.4 -2,-2.6 -1.3,-7.6 6,-0.7 v -4 l -6.7,-7.299998 -7.3,-2 h -10.7 l -6.7,3.3 -4,6.699998 -4,-2 -12,-1.999998 -11.3,4.699998 -9.3,-7.299998 -15.3,-2 -4,-6 -5.3,-5.3 -8,0.7 -9.4,-8.8 -7.3,-1.3 -3.3,-4 -8.7,0.7 1.3,7.3 -4,6 z"
     id="path143"
     inkscape:connector-curvature="0"
     style="fill:#192470;stroke:#00a0c6;stroke-miterlimit:10" />
		<path
     d="m 614.86119,163.87761 c 0.4,1.8 -1.2,3.4 -3.1,3.1 -1,-0.2 -1.9,-1 -2.1,-2.1 -0.4,-1.8 1.2,-3.4 3.1,-3.1 1.1,0.3 1.9,1.1 2.1,2.1 z"
     id="path221"
     inkscape:connector-curvature="0"
     style="fill:#4fa0ca" /><text
     font-size="9"
     id="text223"
     x="554.51019"
     y="156.15291"
     style="font-size:9px;font-family:Verdana-Bold;fill:#4fa0ca">Барселона</text>
	 </g>
	
 <g id="saragosa" style="fill: none;" data-count-objects="148" data-count-flat="1589" data-count-villa="10">
			 <path
     stroke-miterlimit="10"
     d="m 443.76119,76.477612 -5.5,6.5 h -12.5 l -3,16 c 0,0 -13.5,8.499998 -12,13.499998 1.5,5 4.5,7.5 4.5,7.5 l -4.6,4 4.6,9 -4.6,9.5 -5.4,-2.5 -15.5,-2 c 0,0 -2.5,13.1 0,15.6 2.5,2.5 2.3,5.4 -1.1,6.9 -3.4,1.5 -5.9,4.5 -5.9,7.5 0,3 0,10 0,10 l -6,2.5 v 11 4.5 h 5 c 0,0 9.5,5 9.5,7.5 0,2.5 10,5 10,5 0,0 7,14 9,11 v 19.5 c 0,0 -9.5,-1.5 -10,0 -0.5,1.5 -6,10.5 -2.5,16.5 3.5,6 9,7 9,7 0,0 6.5,-1 10.5,2.5 4,3.5 3,9.5 3,9.5 h 2 l 7.5,4 h 4.5 l 2.5,4.5 h 7 l 4.5,3.2 h 3.5 v -13.7 l 7.5,-1 c 0,0 5,-15.5 7,-15 2,0.5 7,0 7,0 l 5,-7 c 0,0 1.5,-6 0,-7.5 -1.5,-1.5 0.7,-17.5 0.7,-17.5 0,0 7.3,-6 8.8,-4.5 1.5,1.5 4,5 7,5 3,0 12.2,-4.5 12.2,-4.5 l 1.1,-5.7 v -4.3 l -2.7,-9 0.1,-3.6 4.2,-10.1 1.4,-6.5 -0.4,-6.2 0.4,-3.9 1.3,-7.7 -2.8,-3.8 -2.5,-2.9 -1.7,-6.3 3.6,-4.9 5,-6.9 6.6,-9.8 3.4,-7 1.8,-12 -1.1,-4.1 V 91.077612 l -9,-7 -10.7,-4 -5.2,3.4 h -17.3 l -9.3,-8.7 -17.3,4 -4,-5.3 -4,-0.7 z"
     id="path145"
     inkscape:connector-curvature="0"
     style="fill:#192470;stroke:#00a0c6;stroke-miterlimit:10" />
	<path
     d="m 441.76119,152.97761 c 0.4,1.8 -1.2,3.4 -3.1,3.1 -1,-0.2 -1.9,-1 -2.1,-2.1 -0.4,-1.8 1.2,-3.4 3.1,-3.1 1,0.3 1.9,1.1 2.1,2.1 z"
     id="path217"
     inkscape:connector-curvature="0"
     style="fill:#4fa0ca" /><text
     font-size="9"
     id="text219"
     x="433.8436"
     y="146.81091"
     style="font-size:9px;font-family:Verdana-Bold;fill:#4fa0ca">Сарагоса</text>

	 </g>
		
		<g id="valencia" style="fill: none;" data-count-objects="88" data-count-flat="198" data-count-villa="1134">
				 <path
     stroke-miterlimit="10"
     d="m 429.76119,289.97761 v 8.5 l -8.5,4 -6.5,5.5 3,15.5 c 0,0 15.5,3 15.5,8.5 0,5.5 -5.5,13.5 0,16.5 5.5,3 13.5,6.5 13.5,8.5 0,2 0,25 0,25 0,0 -4.5,9.5 -2.5,14 2,4.5 2.5,17.5 2.5,17.5 l 7,8.5 v 4 5 4.5 h 2 v -6.7 l 4.7,-7.3 v -11.3 h 6.7 l 5.3,-8 v -8.7 l 4.2,-4.2 6.2,-7.4 9.6,-8.4 13.3,-4 -2,-5.3 -4.7,-3.3 -10,-4.7 -6.7,-8 -1.3,-12.7 -8.7,-6.7 4.9,-18 4.7,-12.4 8.5,-17.7 8,-7.3 3.3,-10.5 2.7,-1.5 4.3,-3.5 7.3,-13.6 3.9,-7.5 -4.5,-3.7 -7.3,-9.1 -1.1,-3.6 -6.1,2.7 -6.1,1.8 -7,-5 -8.8,4.5 -1.2,12.4 0.5,5.1 0.6,4 -5.6,10.5 h -7 l -6.3,13.1 -8.3,3 v 13.7 h -3.5 l -4.5,-3.2 h -7 l -2.5,-4.5 -0.5,5.5 z"
     id="path147"
     inkscape:connector-curvature="0"
     style="fill:#192470;stroke:#00a0c6;stroke-miterlimit:10" />
		<path
     d="m 478.36119,317.57761 c 0.4,1.8 -1.2,3.4 -3.1,3.1 -1,-0.2 -1.9,-1 -2.1,-2.1 -0.4,-1.8 1.2,-3.4 3.1,-3.1 1,0.2 1.9,1.1 2.1,2.1 z"
     id="path245"
     inkscape:connector-curvature="0"
     style="fill:#4fa0ca" /><text
     font-size="9"
     id="text247"
     x="423.80328"
     y="315.47092"
     style="font-size:9px;font-family:Verdana-Bold;fill:#4fa0ca">Валенсия</text>
			
	 </g>

		<g id="murcia" style="fill: none;" data-count-objects="568" data-count-flat="12" data-count-villa="43">
			<path
     stroke-miterlimit="10"
     d="m 375.26119,423.57761 7,3.4 5,5.5 v 9.5 7.5 l 5.5,3 7,5.5 c 0,0 3,2.5 5,4 2,1.5 5.5,5.5 5.5,5.5 v -5.5 l 4.5,-5.5 8.5,-4 c 0,0 4.5,-2.5 7,-0.5 2.5,2 9.5,7 9.5,7 l 7,-4.5 v -2 l 9.5,-1.5 -2.5,-5.4 -7,-3.1 v -2.5 l 4.5,-4.5 2.5,-2.5 v -11 l -7,-8.5 -0.8,-10.1 -1.7,-7.4 0.8,-9.7 1.7,-7.8 v -6 l -4.5,0.5 -7.5,-3 -13.9,3.5 -0.1,12.5 -2.8,6.1 -5.7,3.8 -8.9,3.1 -10.2,2.1 -6.2,2.2 -5.5,7.2 -5.8,8.2 -1.3,1.3 z"
     id="path179"
     inkscape:connector-curvature="0"
     style="fill:#192470;stroke:#00a0c6;stroke-miterlimit:10" />	 
			<path
     d="m 441.76119,425.67761 c 0.4,1.8 -1.2,3.4 -3.1,3.1 -1,-0.2 -1.9,-1 -2.1,-2.1 -0.4,-1.8 1.2,-3.4 3.1,-3.1 1,0.3 1.9,1.1 2.1,2.1 z"
     id="path241"
     inkscape:connector-curvature="0"
     style="fill:#4fa0ca" /><text
     font-size="10"
     id="text243"
     x="397.1366"
     y="419.97791"
     style="font-size:10px;font-family:Verdana-Bold;fill:#4fa0ca">Мурсия</text>
	 </g>

	<g id="toledo" style="fill: none;" data-count-objects="187" data-count-flat="191" data-count-villa="1132">
				<path
     stroke-miterlimit="10"
     d="m 202.76119,273.97761 v 20 l 9,4.5 c 0,0 4,14 5.5,17.5 1.5,3.5 0.5,5 4.5,7 4,2 7,3.5 8.5,4.8 1.5,1.3 4.5,2.8 3.5,6.8 -1,4 -4.5,7 -7,9.5 -2.5,2.5 -3.5,9.5 -2,10 1.5,0.5 0.5,4.5 -2,8.5 -2.5,4 2.5,14 2.5,14 l 11,6.5 7.5,3 11.5,8 6,4.5 4.5,-3 7,3 h 21.5 l 6.5,-8.5 9,4 8.5,-1.5 16,1 9,-4.5 h 11.5 l 8.9,6.5 2.1,8.5 -4.5,11 4.5,5 h 8.5 l 5.5,-5.5 c 0,0 2,-6.5 5.5,-10 3.5,-3.5 15,-4.5 15,-4.5 l 9.5,-3 c 0,0 12,-4.5 11,-11 -1,-6.5 0.1,-12.5 0.1,-12.5 l 13.9,-3.5 7.5,3 4.5,-0.5 v -6 -9.5 l -7.7,-5.5 -5.8,-3 -2.4,-4.5 2,-9 0.4,-3 -3.3,-4.3 -7.2,-3 -5,-1.3 -3,-15.5 6.5,-5.5 8.5,-4 v -8.5 l 2.6,-3.8 1.9,-7.7 h -4.5 l -9.5,-4 -0.7,-6.3 -2.3,-3.2 -5.6,-2.4 -7.7,-1.1 -4.4,-3.4 -3,-6.6 2.8,-10.7 7.3,-3.9 3.5,2.1 v -19.5 l -3.4,-1.7 -3.5,-5.4 -2.1,-3.9 -10,-5 -1.9,-2.6 -5.3,-3.6 -4.8,-1.3 h -2.4 v 4.5 6.5 l -2.5,1 h -10.6 c 0,0 -14.9,-18 -17.4,-18 -2.5,0 -18.5,-3 -27,0 -8.5,3 -13,6.5 -13,6.5 l 3.5,8.5 1.5,5 -2.5,4.5 -2.5,13 7.5,14 7,1 4,7 3.5,2.5 -3.5,5.5 -2.5,3 7,7.5 v 8.5 l -4.5,4 -2.5,-3.5 -17,0.5 -14.5,11.5 h -3 l 5,-13 1,-4.5 -22.5,-9.5 -23,0.5 -4,2 h -11.5 l -12,9 z"
     id="path149"
     inkscape:connector-curvature="0"
     style="fill:#192470;stroke:#00a0c6;stroke-miterlimit:10" />	

			<path
     d="m 282.36119,297.97761 c 0.4,1.8 -1.2,3.4 -3.1,3.1 -1,-0.2 -1.9,-1 -2.1,-2.1 -0.4,-1.8 1.2,-3.4 3.1,-3.1 1,0.2 1.9,1.1 2.1,2.1 z"
     id="path229"
     inkscape:connector-curvature="0"
     style="fill:#4fa0ca" /><text
     font-size="9"
     id="text231"
     x="248.2612"
     y="309.81091"
     style="font-size:9px;font-family:Verdana-Bold;fill:#4fa0ca">Толедо</text>
	 </g>

		<g id="madrid" style="fill: none;" data-count-objects="458" data-count-flat="194" data-count-villa="178">
			   <polygon
     stroke-miterlimit="10"
     points="537,313.5 529,321 523,325 515.5,331 504,343 498,353.5 496.5,360 519.5,359.5 542,369 536,386.5 539,386.5 553.5,375 570.5,374.5 573,378 577.5,374 577.5,365.5 570.5,358 576.5,349.5 571.7,344.7 569,340 562,339 554.5,325 557,312 559.5,307.5 554.5,294 550.5,300.5 544,307 "
     id="polygon151"
     transform="translate(-248.23881,-97.522388)"
     style="fill:#192470;stroke:#00a0c6;stroke-miterlimit:10" />
		<path
     d="m 304.46119,255.67761 c 0.4,1.8 -1.2,3.4 -3.1,3.1 -1,-0.2 -1.9,-1 -2.1,-2.1 -0.4,-1.8 1.2,-3.4 3.1,-3.1 1,0.2 1.9,1 2.1,2.1 z"
     id="path225"
     inkscape:connector-curvature="0"
     style="fill:#4fa0ca" /><text
     font-size="9"
     id="text227"
     x="268.51019"
     y="248.14421"
     style="font-size:9px;font-family:Verdana-Bold;fill:#4fa0ca">Мадрид</text>

	 </g>

	 <g id="merida" style="fill: none;" data-count-objects="348" data-count-flat="192" data-count-villa="1673">
			 <path
     stroke-miterlimit="10"
     d="m 132.26119,255.47761 20.5,-12.8 c 0,0 3.5,0.3 5.5,0 2,-0.3 10,4 12.5,6.4 2.5,2.4 21,11.4 21,11.4 l 11,5.5 v 8 20 l 9,4.5 1.2,4.3 1.9,6.4 2.3,6.9 1.8,4.9 2.7,2.1 2.9,1.4 4,2.2 3.9,3 1.4,3.5 -2.1,5.3 -2.6,3.1 -2.4,2.4 -1.8,3.1 -0.9,5 0.7,1.8 0.7,1.9 -2.7,6.7 -0.5,5.3 h -2.9 l -5.7,6 h -6.3 -4.6 c 0,0 -2.3,0.7 -3.3,3.7 -1,3 -2.3,7.7 -3.7,8.7 -1.4,1 -5.7,-1 -6.7,2 -1,3 -4,4.3 -2.7,6.7 1.3,2.3 2.7,8 2,9.7 -0.7,1.7 -1.7,5 -3,6.3 -1.3,1.3 -2.7,-3.7 -4,-4.3 -1.3,-0.7 -1,-3.7 -3.7,-2 -2.7,1.7 -6.3,4.8 -7.7,6.6 -1.3,1.8 -5,6.1 -7.3,7.1 -2.3,1 -5.7,1.7 -6,4.3 -0.3,2.6 -4.7,-0.3 -6.3,0 -1.7,0.3 -10,-2.5 -10,-2.5 l -10.6,-4.6 -5.7,-4 -5.7,-3.7 -3.3,-3 -2.3,0.2 -3.3,0.3 -1.7,0.2 -3.3,-3.7 -2.4,-2.6 -2.399996,-2.6 -4.6,-5.1 1.8,-6.3 1.5,-5.1 0.7,-11.3 3.899996,-3.3 4.1,-3.4 5.3,-9.3 0.7,-9.3 -1.7,-2.6 -2.1,-2.3 -2,-2 -4.9,-4.5 -1.7,-5 -0.999996,-3 v -10.6 l -11.3,-10 6.4,-0.6 8.299996,-0.8 5.4,-0.5 6,-3 4.4,-4.1 0.3,-2.2 v -3.2 l 2.7,-2.2 -0.3,-5.3 -0.3,-5.4 -4.7,-8 4,-10 8,0.7 -0.5,-2.8 z"
     id="path161"
     inkscape:connector-curvature="0"
     style="fill:#192470;stroke:#00a0c6;stroke-miterlimit:10" />
		<path
     d="m 158.56119,361.77761 c 0.4,1.8 -1.2,3.4 -3.1,3.1 -1,-0.2 -1.9,-1 -2.1,-2.1 -0.4,-1.8 1.2,-3.4 3.1,-3.1 1,0.3 1.9,1.1 2.1,2.1 z"
     id="path233"
     inkscape:connector-curvature="0"
     style="fill:#4fa0ca" /><text
     font-size="10"
     id="text235"
     x="147.5945"
     y="355.47791"
     style="font-size:10px;font-family:Verdana-Bold;fill:#4fa0ca">Мерида</text>
	 </g>

		 <g id="sevilla" style="fill: none;" data-count-objects="5678" data-count-flat="234" data-count-villa="546">
			<path
     stroke-miterlimit="10"
     d="m 374.26119,419.97761 h -8.5 l -1.1,-1.3 -3.4,-3.8 4.5,-11 -2.1,-8.5 -8.9,-6.5 h -11.5 l -9,4.5 c 0,0 -11.8,-0.7 -12.8,-0.8 -1,-0.1 -7.7,0.6 -7.7,0.6 l -4,0.7 -9,-4 -6.5,8.5 h -21.5 l -7,-3 -4.5,3 -9.5,-6.9 -8,-5.6 -4,-1.6 -3.5,-1.4 -11,-6.5 -3,-8.7 h -2.9 l -5.7,6 h -6.3 -4.6 l -2.6,2.1 -1.9,4.9 -1.2,3.2 -1.4,2.1 -3,0.3 -3.7,1.7 -2.3,3.8 -0.3,2.9 1.7,5.1 -0.3,6 -2.5,4.9 -1.3,-0.3 -4.1,-6 h -2.1 l -4.6,3.5 -4,4.2 -3.9,4.2 -2.5,1.8 -4.2,1.8 -1.8,2.6 -1.3,1.1 -6.6,-1.2 -6.3,-1.7 -11.1,-4.5 -7.3,-4.7 -2.6,-1.7 -6.4,-5 -5.6,0.5 2.3,4.2 -2,4 -1,3 c 0,0 -3.5,3.5 -6,3.5 -2.5,0 -2.999996,2.5 -4.999996,3.6 -2,1.1 -4,0 -4,0 l -5.3,8.4 v 3.5 l -3.2,6 -6,9.5 3.5,7.5 c 0,0 0,9.5 0,9 0,-0.5 3.5,9.5 3.5,9.5 l 17.399996,0.5 12,3 8.5,6 7,6.5 h 5.5 v 7 h 7 l -3.5,9.5 -3.5,2.5 5.5,10 5.5,-1.5 3,6 v 13 l 7,11 10.5,0.5 v 7.5 l 8,3 h 15 l 8,-15.5 8.5,-9 h 8.5 l 9.5,-5 h 13 l 9,-8 h 4.5 v -5 l 5.5,-2.5 10,-1.5 v -2.5 l 3,1.5 h 9.5 v -2 l 4,0.5 5,0.5 5,-1.5 6.5,7.5 6.5,-5.5 9.5,-0.5 8,1 12,1 8,4 6,-7 5,-6.5 9,-2 9.5,11 h 4.5 l 8,-14 h 5 v -8.5 -3 h 2.5 v -5 -4 h 3 v -3.5 l 4.5,-3.5 2.5,-5.5 h 6 l -2.6,-2.8 -6.2,-5.3 -8.7,-6.9 -5.5,-3 v -17 l -5,-5.5 -3.8,-1.9 -3.2,-1.5 z"
     id="path181"
     inkscape:connector-curvature="0"
     style="fill:#192470;stroke:#00a0c6;stroke-miterlimit:10" />
		 	<path
     d="m 169.66119,466.97761 c 0.4,1.8 -1.2,3.4 -3.1,3.1 -1,-0.2 -1.9,-1 -2.1,-2.1 -0.4,-1.8 1.2,-3.4 3.1,-3.1 1.1,0.2 1.9,1.1 2.1,2.1 z"
     id="path237"
     inkscape:connector-curvature="0"
     style="fill:#4fa0ca" /><text
     font-size="10"
     id="text239"
     x="164.46989"
     y="455.81091"
     style="font-size:10px;font-family:Verdana-Bold;fill:#4fa0ca">Севилья</text>
	 </g>

	<g id="pamplona" style="fill: none;" data-count-objects="987" data-count-flat="6" data-count-villa="654">

		 <polygon
     stroke-miterlimit="10"
     points="645.3,143 651,144.5 658.7,146.3 657.3,149.5 656.4,152.4 656.1,155 657.3,157 660.3,158 662.8,158.6 665.7,159.3 672.7,160.8 681.8,162.8 684.7,163.5 690.2,165 692,165.7 694.1,167.7 696,170.3 695,171.3 690.5,175.8 686.5,180.5 684.3,180.5 679,180.5 674,180.5 673,186 671.8,192 671,196.5 669.6,197.4 667.4,199 663.9,201.9 661.5,204.2 659.8,206.4 659,210 660.8,214.1 663.5,217.5 660.3,220.3 658.9,221.5 663.5,230.5 658.9,240 653.5,237.5 638,235.5 637.9,234 636.7,232 635.6,231.4 634.6,229.9 634,228 634.7,226.7 637.1,225.5 639,224.9 641,224.7 643.3,224.6 645.5,223.9 645.3,222 643.3,219.6 639,215.2 636.9,213.1 634,210.4 631,208.3 628,207.2 625,206.1 622.2,205.1 618.2,203.9 611.9,202.3 606.8,201.3 604.7,201 607.1,199.1 607.6,196 607.3,193.7 607,190.3 606.8,184.7 607.7,182.9 610,183.4 611.9,182.9 611.9,179.3 614.2,177.2 617.5,174.6 620.3,173.7 620.3,164 631,155 631,149 632.6,146.4 635,144.4 637.3,144.8 639.7,144.3 643.3,140.5 "
     id="polygon169"
     transform="translate(-248.23881,-97.522388)"
     style="fill:#192470;stroke:#00a0c6;stroke-miterlimit:10" />
			<text
     font-size="9"
     id="text253"
     x="370.76138"
     y="90.12661"
     style="font-size:9px;font-family:Verdana-Bold;fill:#4fa0ca">Памплона</text>
<circle
     cx="404.7612"
     cy="77.777618"
     r="2.5999999"
     id="circle255"
     style="fill:#4fa0ca" />
			 
	 </g>

  <g id="logrono" style="fill: none;" data-count-objects="098" data-count-flat="45" data-count-villa="324">
		
		 <path
     stroke-miterlimit="10"
     d="m 322.46119,99.477612 v 13.299998 l 1.4,11.3 c 0,0 4.9,5 5.4,5.7 0.5,0.7 2.2,5.3 2.2,5.3 h 5.3 l 4.3,-4.3 4.3,7.7 4.3,-1 8.7,-9.7 c 0,0 2.5,-0.7 5.3,2 2.7,2.7 6.4,6 8.7,7 2.3,1 6,5.3 8.3,5 2.3,-0.3 4.3,1.4 5.7,0 1.3,-1.4 3.3,-3.9 3.3,-3.9 0,0 0,-3.5 -1.3,-3.5 -1.3,0 -4,-4.7 -2,-5.3 0,0 3,-2 6.3,-2 3.3,0 6,-0.3 4.3,-2.7 -1.7,-2.3 -12,-13 -14.3,-13.7 -2.3,-0.7 -8.3,-3.7 -19.1,-6 -10.8,-2.3 -7.3,-1.3 -7.3,-1.3 l -3.6,-1 -3.1,-1 -2.8,-1.999998 -3.3,-3.1 -4.2,-4.2 -2.7,-1.3 h -4 l -1.3,1.3 -2.2,0.7 -4.3,1.7 z"
     id="path159"
     inkscape:connector-curvature="0"
     style="fill:#192470;stroke:#00a0c6;stroke-miterlimit:10" />
		<path
     d="m 358.36119,109.47761 c 2.1,2.8 -1,6 -3.8,3.8 -2.2,-2.8 1,-6 3.8,-3.8 z"
     id="path213"
     inkscape:connector-curvature="0"
     style="fill:#4fa0ca" /><text
     font-size="9"
     id="text215"
     x="329.26129"
     y="122.86141"
     style="font-size:9px;font-family:Verdana-Bold;fill:#4fa0ca">Логроньо</text>
			 
	 </g>

		 <g id="leon" style="fill: none;" data-count-objects="526" data-count-flat="84" data-count-villa="1">
			
			 <path
     stroke-miterlimit="10"
     d="m 132.06119,68.177612 -0.9,4.6 -2.7,2 -3,4.7 -5,5.9 v 9.1 l 2,3.3 5.7,1 7,4.599998 2,6.7 -2.7,6.5 h -3 l -2.7,5.9 -3.3,-2 -3.3,3.7 -1.7,4.3 v 5 l -0.7,4.7 h 6.5 2.8 6 4.7 l 8,5.3 v 13.3 l 2.3,0.8 3.7,1.2 h 5.3 l 4,10 -5.3,3.3 -4.6,5.2 -3.8,4.3 -10.3,9.2 -2,3.1 -3.1,4.7 -2.3,3.5 h -7.3 l 2.8,9.6 2.9,10.3 1,3.4 -2,13.3 -3.3,4.8 2.2,12.6 4.3,-0.6 20.5,-12.8 h 5.5 l 9.2,4 4.5,3.3 4.4,2.6 2.6,1.4 7.3,3.8 6.8,3.4 7.6,3.8 2.1,1 v 8 l 4.7,-0.1 12,-0.3 13.3,-9 h 11.5 l 4,-2 1.5,-6.5 2,-3.5 4,-7 6,-6.3 8.5,-8.1 9.4,-6.8 9.1,-8.2 4.1,-3.8 5.9,-5.7 3.5,-3.5 4,-6.5 1.5,-1 8.5,-4.3 5,-1.7 8,-0.8 h 7.5 l 9.5,1.3 1.9,1.1 7.1,7.2 8.4,9.7 h 10.6 l 2.5,-1 v -26.7 l 6,-2.5 v -10 c 0,0 1.5,-4.4 2.7,-5.4 1.2,-1 5.3,-3.7 5.3,-3.7 v -4 l -1,-1.3 -1.1,-4.1 0.1,-4.3 0.3,-2.8 0.7,-4.4 -3.3,3.9 -3.4,0.1 -4.3,-0.7 -3.8,-2.8 -5.3,-3.4 -3.4,-2.9 -6.1,-4.3 h -1.6 l -3.3,3.7 -5.3,6 -4.3,1 -4.3,-7.7 -4.3,4.3 h -5.3 l -2.2,-5.3 -5.4,-5.7 -1.4,-11.3 v -5.4 -7.999998 l 2.3,-5 6.7,-2.3 -2.2,-2.1 -4.5,-4.7 h -1.6 l -2.1,-2.1 -1.9,-3.7 -1.7,-3.5 0.7,-3.3 2.5,-4.6 1.7,-3.5 0.6,-4.5 -1,-2.7 h -15.5 l -2.3,-2.6 -3.1,2.6 -3.6,4.1 -1.3,2.2 -1.4,0.6 -4.6,-1.2 -3.1,1.2 -1.9,1.5 1,5 0.9,5.9 -1,6 -4.1,2.6 -5.7,-1.9 -4.1,-1 -3,-3.6 0.9,-2.6 1.7,-1.8 -1.9,-3.7 -7.1,-6 -3,-0.3 -4.8,0.4 -7,-0.1 -4.5,0.1 -7.3,-3.7 -2.2,-3.2 -2.4,-1.3 -3.4,-1.8 -3.2,0.6 -3,0.9 -4,1.1 -8.6,1.8 -5.2,1.5 -4.7,2.2 -2.7,-2.5 -3.8,-2.5 -1.5,-0.5 -2.8,2.5 -2.3,4 -2.9,3 -1.9,-0.7 -3.1,-4.3 -3.3,1.3 -4.1,1.7 -4.3,0.4 -3.3,-1.5 -2.6,-2.2 -2.2,-0.1 -3.6,2.2 -4,4.5 -2.4,2.6 -3.8,2 -3.8,-0.6 -3.8,-1.4 z"
     id="path167"
     inkscape:connector-curvature="0"
     style="fill:#192470;stroke:#00a0c6;stroke-miterlimit:10" />
			
			<circle
     cx="213.06119"
     cy="92.777618"
     r="2.5999999"
     id="circle201"
     style="fill:#4fa0ca" /><text
     font-size="10"
     id="text203"
     x="205.761"
     y="85.389709"
     style="font-size:10px;font-family:Verdana-Bold;fill:#4fa0ca">Леон</text>
			 
	 </g>

		 <g id="bilbao" style="fill: none;" data-count-objects="765" data-count-flat="54" data-count-villa="54">
		 	 <path
     stroke-miterlimit="10"
     d="m 306.76119,57.477612 h 15.3 c 0,0 2.3,3 0,8 -2.3,5 -5.7,9.3 -4.7,10.7 1,1.3 3.1,8.2 5.7,9.2 2.6,1 8.3,6.8 8.3,6.8 0,0 5,-3 8,0 3,3 8.3,8.699998 10.3,9.299998 2,0.6 5.7,2 6.7,2 1,0 3,-2 3,-3.699998 0,-1.7 -2,-15.5 0,-14.4 2,1.1 4.3,0 4.3,0 v -3.6 c 0,0 8.1,-7.7 8.4,-5.7 0.3,2 0,-9.7 0,-9.7 0,0 9.7,-9.1 10.7,-9 1,0 0,-6 0,-6 0,0 3,-5.5 4,-4.6 1,0.9 4.7,-0.1 4.7,-0.1 l 3.6,-3.8 -1.3,-3.4 -4.4,1 -7.6,1.7 -5,1.1 -7,1.2 -12,1.1 -10,-7.3 -2.7,0.3 -5.7,0.7 -2.6,0.2 -2.3,0.7 -5.2,1.4 -3.5,0.5 -1.9,-1.2 -2.1,4.6 -4.9,2.5 -6.7,3.6 -4.4,2.3 -1.3,1.1 z"
     id="path157"
     inkscape:connector-curvature="0"
     style="fill:#192470;stroke:#00a0c6;stroke-miterlimit:10" />
			<circle
     cx="331.86118"
     cy="52.277615"
     r="2.5999999"
     id="circle209"
     style="fill:#4fa0ca" /><text
     font-size="9"
     id="text211"
     x="324.76138"
     y="64.810814"
     style="font-size:9px;font-family:Verdana-Bold;fill:#4fa0ca">Бильбао</text>
 
	 </g>

		 <g id="santander" style="fill: none;" data-count-objects="000" data-count-flat="234" data-count-villa="456">
			
			<path
     stroke-miterlimit="10"
     d="m 236.46119,61.177612 c 0,0 4,3.7 7.3,3.7 3.3,0 8.3,-0.3 10.7,0 2.3,0.3 7.3,-1 8.7,0 1.4,1 6.3,5.3 6.3,5.3 0,0 4,3.3 2.7,4.3 -1.3,1 -2.7,2.7 -2.7,4.3 0,1.7 2,3.7 4.7,4 2.7,0.3 3,1 4.7,1.7 1.7,0.7 3,1.7 5.3,0 2.3,-1.7 3.3,-2.3 3.3,-5.7 0,-3.3 -2,-13 -2,-13 0,0 2.7,-2.7 5,-2.7 2.3,0 5.3,2.3 6,0.7 0.7,-1.7 3.7,-5.3 3.7,-5.3 l 5.7,-4.7 13,-6.9 3,-1.4 2.1,-4.5 -2.4,-1.5 h -15.8 l 0.7,-4.7 -3.3,-5.3 -13.3,5.3 h -10.7 l -12.4,2.5 -7.8,1.7 -5.4,0.8 -3,-0.4 -0.2,11.7 h -6 l -10,3.3 v 3.5 z"
     id="path155"
     inkscape:connector-curvature="0"
     style="fill:#192470;stroke:#00a0c6;stroke-miterlimit:10" />
			<circle
     cx="285.06119"
     cy="38.177608"
     r="2.5999999"
     id="circle249"
     style="fill:#4fa0ca" />
     <text
     font-size="9"
     id="text251"
     x="255.2818"
     y="49.619213"
     style="font-size:9px;font-family:Verdana-Bold;fill:#4fa0ca">Сантандер</text>

 
	 </g>

	  <g id="оviedo" style="fill: none;" data-count-objects="1" data-count-flat="1922" data-count-villa="234">
			 <path
     stroke-miterlimit="10"
     d="m 120.26119,29.477612 c 0,0 -3,1 -3,5.5 0,4.5 7.5,11.5 10.5,12.5 3,1 7.5,5.5 5,7 -2.5,1.5 -10.5,7 -10.5,7 0,0 2.5,2 6,4.5 3.5,2.5 13.5,7.2 17,6.8 3.5,-0.3 7,-5.8 7,-5.8 0,0 6.5,-8.5 10,-4.5 3.5,4 8,3 8,3 l 8.5,-3.5 c 0,0 2,5 5,5 3,0 5,-11.5 9.5,-9 4.5,2.5 6.5,5 6.5,5 l 6.5,-3 12,-2.5 7,-2 h 4.5 l 4.5,2.5 v -3.5 l 10,-3.3 h 6 v -6.7 l 0.2,-5 -2.8,-1.2 -2.3,-0.5 -10.9,-1.6 -7,-0.6 -9,-0.8 -4.7,-8 -6.7,2.7 -13.3,-2 -1.3,-4 -1.6,-1.8 -4.1,-0.6 h -3 l -0.1,3.2 -4,0.5 -4.3,0.6 -3.4,0.2 -4.7,-0.2 -4.3,-0.2 -10.3,-0.8 -11,-1.4 -6,0.4 -5,1 -2.3,0.5 -6.4,1.5 z"
     id="path153"
     inkscape:connector-curvature="0"
     style="fill:#192470;stroke:#00a0c6;stroke-miterlimit:10" />
		<circle
     cx="173.16119"
     cy="54.877605"
     r="2.5999999"
     id="circle205"
     style="fill:#4fa0ca" /><text
     font-size="10"
     id="text207"
     x="167.0945"
     y="46.901211"
     style="font-size:10px;font-family:Verdana-Bold;fill:#4fa0ca">Овьедо</text>

	 </g>
		
	<g id="santiago" style="fill: none;" data-count-objects="87" data-count-flat="000" data-count-villa="345">
			  <path
     stroke-miterlimit="10"
     d="m 131.06119,72.777612 -2.7,2 -3,4.7 -3,2.7 -2,3.2 v 3.8 5.3 l 2,3.3 h 3.3 l 5.3,2.299998 4,3.3 2,6.7 -2.7,6.5 h -3 l -0.3,2.9 -2.3,3 -3.3,-2 -3.3,3.7 -1.7,4.3 v 7 l -0.7,2.7 h -2.5 -6.2 l -2.7,7.3 -4,-0.7 -4.699996,2 -4.7,-3.3 h -31.1 l -2.7,-5.3 6,-4.7 -2,-7.3 -4,-3.3 h -8.7 l -6,4 -7.3,0.7 -13.3,11.9 v -16.7 l 6,-4 6.7,-8.7 V 96.077612 l -5.3,8.699998 -2.7,-4.7 6,-12.699998 -6,-2.7 -8,8 -3.3,-4.7 6.6,-10.5 h -6.7 l -4.7,-16.7 -3.3,3.3 v -12 h 5.3 l 1.3,-8 h 8.7 l 2,-4.7 5.3,-2.7 2,0.7 h 4.7 l 4.6,-0.7 5.1,-0.5 1.7,0.5 1,0.3 2.1,-0.8 4.3,-4.8 2.7,2.7 2,2 2.9,1.1 0.3,-2.5 -1.9,-5.9 h -3.4 v -8 h 5.3 l 6.7,-3.3 2,-6 h 10.7 l 7.3,-2.7000001 c 0,0 4.8,3.8000001 6.499996,3.6000001 1.7,-0.2 7.5,-3.6000001 7.5,-3.6000001 l 2.7,5.1000001 2,4.2 1.2,2.8 0.4,1.3 -0.3,1.3 c 0,0 -0.3,1.2 0.7,1.9 1,0.6 4.1,1.5 4.1,1.5 l 3.6,-0.6 -1.2,2 -2.3,2.3 -1.4,3.1 v 2.5 l 1.6,3 2.5,3.2 3.1,2.9 3.3,2.1 4.2,2.9 1.5,2.4 -2.8,3.1 -3.8,2.5 -3.4,2.3 -1.2,0.8 2.6,2 3.4,2.5 1.9,1.2 1.9,1 z"
     id="path163"
     inkscape:connector-curvature="0"
     style="fill:#192470;stroke:#00a0c6;stroke-miterlimit:10" />

     <circle
     cx="46.461205"
     cy="77.777618"
     r="2.5999999"
     id="circle197"
     style="fill:#4fa0ca" /><text
     font-size="10"
     id="text199"
     x="38.427895"
     y="70.14431"
     style="font-size:10px;font-family:Verdana-Bold;fill:#4fa0ca">Сантьяго</text>


	 </g>

    <g id="palma" style="fill: none;" data-count-objects="8" data-count-flat="1934" data-count-villa="1234">	
		<path
     stroke-miterlimit="10"
     d="m 627.53731,252.10298 c -2,0.7 -10,0 -10,0 l -18,13.3 v 5 h -6 l -11.3,13.7 8.7,5.3 h 8 l 6,-4 v 9.3 h 6 8 l 0.7,4.9 4,3.1 4,-3.1 4,-6.9 v -5.3 l 3.3,-4.7 8.6,-12.3 -4.7,-5 -10.7,2 -4,-2.7 2.7,-6.7 h -6.7 z"
     id="path175"
     inkscape:connector-curvature="0"
     style="fill:#192470;stroke:#00a0c6;stroke-miterlimit:10" />
      <polygon
     stroke-miterlimit="10"
     points="880.7,439 875.3,449 882.7,449 886,453 890,449 893.3,442.3 896.7,439.7 896.7,431.7 890,431.7 886.7,439 "
     id="polygon171"
     transform="translate(-332.46269,-125.59701)"
     style="fill:#192470;stroke:#00a0c6;stroke-miterlimit:10" />
      <polygon
     stroke-miterlimit="10"
     points="990,372.7 990,377.7 994.7,377.7 998.7,383.7 1002,377.7 1005.3,383.7 1009.3,383.7 1004,375.7 1005.3,371.5 1003.3,367.7 1000,367.7 998.7,365 995,365 990.7,365 983.3,365 980.7,377.7 986.7,377.7 "
     id="polygon177"
     transform="translate(-332.46269,-125.59701)"
     style="fill:#192470;stroke:#00a0c6;stroke-miterlimit:10" />
      <polygon
     stroke-miterlimit="10"
     points="893,465.3 886,465.3 886,459.7 889.3,459.7 896.7,465.3 "
     id="polygon173"
     transform="translate(-332.46269,-125.59701)"
     style="fill:#192470;stroke:#00a0c6;stroke-miterlimit:10" />
      <path
     d="m 608.13731,286.90298 c 0.4,1.8 -1.2,3.4 -3.1,3.1 -1,-0.2 -1.9,-1 -2.1,-2.1 -0.4,-1.8 1.2,-3.4 3.1,-3.1 1,0.2 1.9,1.1 2.1,2.1 z"
     id="path257"
     inkscape:connector-curvature="0"
     style="fill:#4fa0ca" />
     <text
     font-size="9"
     id="text259"
     x="571.91272"
     y="302.73621"
     style="font-size:9px;font-family:Verdana-Bold;fill:#4fa0ca">Пальма</text>

	 </g>
    
 <g id="island" style="fill: none;" data-count-objects="45" data-count-flat="23" data-count-villa="1">
			
 <path
     stroke-miterlimit="10"
     d="m 413.47313,511.8806 2.4,6.5 5,6.5 c 0,0 -2.5,7.5 0,7.5 2.5,0 6.5,-4 6.5,-4 v -9.5 -7 c 0,0 4,-6 0,-6.5 -4,-0.5 -6,0 -6,0 l -7.8,4 v 2.5 z"
     id="path183"
     inkscape:connector-curvature="0"
     style="fill:#192470;stroke:#00a0c6;stroke-miterlimit:10" /><polyline
     stroke-miterlimit="10"
     points="779.5,686.5 776,695 772,690.8 764,690.8 764,686.5   771.8,686.5 771.8,680.5 776,680.5 779.5,684.5 "
     id="polyline185"
     transform="translate(-354.62687,-124.1194)"
     style="fill:#192470;stroke:#00a0c6;stroke-miterlimit:10" /><path
     stroke-miterlimit="10"
     d="m 453.37313,538.3806 v 8 c 0,0 -2.5,2 0,2 2.5,0 8.5,0 8.5,0 h 1.8 v -2.5 l 1.3,-2.5 -1.3,-2.3 -4,-2.8 -4.8,-1.5 z"
     id="path187"
     inkscape:connector-curvature="0"
     style="fill:#192470;stroke:#00a0c6;stroke-miterlimit:10" /><path
     stroke-miterlimit="10"
     d="m 473.87313,528.6806 2.3,9.5 c 0,0 2.8,4.8 3.5,4.5 0.7,-0.3 2.3,5.8 2.3,5.8 l 2.5,3 v 2.5 h 5.5 l 2.8,-5.5 c 0,0 2.8,-2 3.8,-3.8 1,-1.8 1.3,-7.3 1.3,-7.8 0,-0.5 3.5,-5.3 3.8,-6 0.3,-0.7 2.3,-5 2.3,-5 h 2 l 3.5,-3.3 3.5,-1.8 v -8 l -3.8,3.3 c 0,0 -1.5,0.8 -2.8,1 -1.3,0.2 -8.3,1.6 -8.3,1.6 v 4.6 l -2.8,2.8 -3.5,3.3 -4.5,-2.8 -6.8,-0.3 -6.5,1.3 v 1.1 z"
     id="path189"
     inkscape:connector-curvature="0"
     style="fill:#192470;stroke:#00a0c6;stroke-miterlimit:10" /><polygon
     stroke-miterlimit="10"
     points="886.5,691.5 889.8,691.5 892.5,695 895.8,689.3 898.5,687.8 902.3,683.5 902.3,674.8 900,672.5 902.3,666.8 895,666.8 890.3,664.3 886.8,666.8 886.5,672.5 880.5,673.3 880.5,680.5 880.5,683.5 883.5,687.8 "
     id="polygon191"
     transform="translate(-354.62687,-124.1194)"
     style="fill:#192470;stroke:#00a0c6;stroke-miterlimit:10" /><path
     stroke-miterlimit="10"
     d="m 590.87313,545.6806 v 2.8 l 5.5,1.5 3.8,1.3 2.5,-2.8 3,-4 4.5,-1.8 11,-3.8 4.5,-12.3 -3,-1.5 3,-4.3 v -3.8 l -1.5,-1.8 1.5,-2.5 v -4.5 h -4.8 l -5,1.8 -3,7.5 1.5,3.3 -1.5,2.8 -4.6,3.3 v 4.5 l -2.4,2 -2.3,6.8 c 0,0 -2.5,1.5 -3.3,2.5 -0.8,1 -3.5,3.5 -3.5,3.5 z"
     id="path193"
     inkscape:connector-curvature="0"
     style="fill:#192470;stroke:#00a0c6;stroke-miterlimit:10" /><path
     stroke-miterlimit="10"
     d="m 623.67313,498.1806 c -1.3,0.5 -6,4 -6,4 0,0 3,2 4.3,2 1.3,0 5.5,0 5.5,0 l 1.5,-6 c 0,0 1,-1 4.8,0 3.8,1 4.8,-0.4 4.8,-0.4 l 2.5,-2.3 1.5,-4.5 1.5,-4.8 v -7.5 c 0,0 -3.3,-4.8 -3.3,-2 0,2.8 -3,9.8 -3,9.8 l -3.8,2.3 -4.3,1.3 c 0,0 -5,-1.8 -4,1.7 1,3.5 0,5.8 0,5.8 z"
     id="path195"
     inkscape:connector-curvature="0"
     style="fill:#192470;stroke:#00a0c6;stroke-miterlimit:10" />

	 </g>
	
				</svg>
				